<svg xmlns="http://www.w3.org/2000/svg" viewBox="0 0 64 64">
  <circle cx="32" cy="32" r="30" fill="#f5f5f0" stroke="#888" stroke-width="2"/>
  <path d="M22 4 C16 14, 14 24, 14 32 C14 40, 16 50, 22 60" fill="none" stroke="#cc0000" stroke-width="2.5" stroke-linecap="round"/>
  <path d="M42 4 C48 14, 50 24, 50 32 C50 40, 48 50, 42 60" fill="none" stroke="#cc0000" stroke-width="2.5" stroke-linecap="round"/>
  <line x1="20" y1="8" x2="16" y2="6" stroke="#cc0000" stroke-width="1.8" stroke-linecap="round"/>
  <line x1="18" y1="14" x2="14" y2="13" stroke="#cc0000" stroke-width="1.8" stroke-linecap="round"/>
  <line x1="16" y1="20" x2="12" y2="20" stroke="#cc0000" stroke-width="1.8" stroke-linecap="round"/>
  <line x1="15" y1="26" x2="11" y2="27" stroke="#cc0000" stroke-width="1.8" stroke-linecap="round"/>
  <line x1="14" y1="32" x2="10" y2="33" stroke="#cc0000" stroke-width="1.8" stroke-linecap="round"/>
  <line x1="15" y1="38" x2="11" y2="39" stroke="#cc0000" stroke-width="1.8" stroke-linecap="round"/>
  <line x1="16" y1="44" x2="12" y2="45" stroke="#cc0000" stroke-width="1.8" stroke-linecap="round"/>
  <line x1="18" y1="50" x2="14" y2="51" stroke="#cc0000" stroke-width="1.8" stroke-linecap="round"/>
  <line x1="20" y1="56" x2="16" y2="58" stroke="#cc0000" stroke-width="1.8" stroke-linecap="round"/>
  <line x1="44" y1="8" x2="48" y2="6" stroke="#cc0000" stroke-width="1.8" stroke-linecap="round"/>
  <line x1="46" y1="14" x2="50" y2="13" stroke="#cc0000" stroke-width="1.8" stroke-linecap="round"/>
  <line x1="48" y1="20" x2="52" y2="20" stroke="#cc0000" stroke-width="1.8" stroke-linecap="round"/>
  <line x1="49" y1="26" x2="53" y2="27" stroke="#cc0000" stroke-width="1.8" stroke-linecap="round"/>
  <line x1="50" y1="32" x2="54" y2="33" stroke="#cc0000" stroke-width="1.8" stroke-linecap="round"/>
  <line x1="49" y1="38" x2="53" y2="39" stroke="#cc0000" stroke-width="1.8" stroke-linecap="round"/>
  <line x1="48" y1="44" x2="52" y2="45" stroke="#cc0000" stroke-width="1.8" stroke-linecap="round"/>
  <line x1="46" y1="50" x2="50" y2="51" stroke="#cc0000" stroke-width="1.8" stroke-linecap="round"/>
  <line x1="44" y1="56" x2="48" y2="58" stroke="#cc0000" stroke-width="1.8" stroke-linecap="round"/>
</svg>