<svg xmlns="http://www.w3.org/2000/svg" viewBox="0 0 64 64">
  <circle cx="32" cy="32" r="30" fill="#f5f5f0" stroke="#cc0000" stroke-width="2"/>
  <path d="M20 8 Q18 16 18 24 Q18 32 20 40 Q22 48 24 56" fill="none" stroke="#cc0000" stroke-width="2.5" stroke-linecap="round"/>
  <path d="M44 8 Q46 16 46 24 Q46 32 44 40 Q42 48 40 56" fill="none" stroke="#cc0000" stroke-width="2.5" stroke-linecap="round"/>
  <line x1="18" y1="12" x2="15" y2="10" stroke="#cc0000" stroke-width="1.5" stroke-linecap="round"/>
  <line x1="17" y1="18" x2="14" y2="17" stroke="#cc0000" stroke-width="1.5" stroke-linecap="round"/>
  <line x1="17" y1="24" x2="13" y2="24" stroke="#cc0000" stroke-width="1.5" stroke-linecap="round"/>
  <line x1="17" y1="30" x2="13" y2="31" stroke="#cc0000" stroke-width="1.5" stroke-linecap="round"/>
  <line x1="18" y1="36" x2="14" y2="38" stroke="#cc0000" stroke-width="1.5" stroke-linecap="round"/>
  <line x1="19" y1="42" x2="15" y2="44" stroke="#cc0000" stroke-width="1.5" stroke-linecap="round"/>
  <line x1="21" y1="48" x2="17" y2="50" stroke="#cc0000" stroke-width="1.5" stroke-linecap="round"/>
  <line x1="46" y1="12" x2="49" y2="10" stroke="#cc0000" stroke-width="1.5" stroke-linecap="round"/>
  <line x1="47" y1="18" x2="50" y2="17" stroke="#cc0000" stroke-width="1.5" stroke-linecap="round"/>
  <line x1="47" y1="24" x2="51" y2="24" stroke="#cc0000" stroke-width="1.5" stroke-linecap="round"/>
  <line x1="47" y1="30" x2="51" y2="31" stroke="#cc0000" stroke-width="1.5" stroke-linecap="round"/>
  <line x1="46" y1="36" x2="50" y2="38" stroke="#cc0000" stroke-width="1.5" stroke-linecap="round"/>
  <line x1="45" y1="42" x2="49" y2="44" stroke="#cc0000" stroke-width="1.5" stroke-linecap="round"/>
  <line x1="43" y1="48" x2="47" y2="50" stroke="#cc0000" stroke-width="1.5" stroke-linecap="round"/>
</svg>